<svg width="58" height="51" viewBox="0 0 58 51" fill="none" xmlns="http://www.w3.org/2000/svg">
<g clip-path="url(#clip0_816_490)">
<path d="M35.7002 25.3899C34.3325 25.216 32.9648 25.0391 31.5971 24.8682C27.6642 24.377 23.7313 23.8827 19.7983 23.3946C16.3426 22.9644 12.8838 22.5312 9.42197 22.1315C8.90528 22.0705 8.61654 21.8752 8.38859 21.4115C5.77475 16.1241 3.13355 10.849 0.510583 5.56473C-0.468089 3.59686 -0.0182642 1.64729 1.67466 0.542838C2.8752 -0.244312 4.13349 -0.0856615 5.37051 0.442156C10.6651 2.70598 15.9505 4.982 21.239 7.25802C32.6487 12.1701 44.0585 17.0882 55.4712 21.9881C56.9575 22.6258 58.0061 23.5532 57.9969 25.3076C57.9909 27.1229 57.0608 28.27 55.4348 28.9718C38.7365 36.1629 22.0414 43.354 5.35531 50.5696C3.42229 51.4055 2.00899 50.9265 1.02727 49.9319C-0.136799 48.7573 -0.313082 47.0793 0.510583 45.4195C3.13659 40.1383 5.77475 34.8601 8.39163 29.5759C8.61958 29.1121 8.91136 28.9199 9.42501 28.8589C13.7865 28.3372 18.1449 27.7788 22.5034 27.2388C26.7372 26.714 30.971 26.1923 35.2079 25.6676C35.375 25.6462 35.5361 25.6065 35.7033 25.576C35.7002 25.515 35.7002 25.4509 35.7002 25.3899Z" fill="#182B47"/>
</g>
<defs>
<clipPath id="clip0_816_490">
<rect width="58" height="51" fill="white"/>
</clipPath>
</defs>
</svg>
